<svg width="45" height="45" viewBox="0 0 45 45" fill="none" xmlns="http://www.w3.org/2000/svg">
<path fill-rule="evenodd" clip-rule="evenodd" d="M23.2343 0.471741C23.5936 0.149225 24.0689 -0.0198297 24.5554 0.00185602C34.8398 0.309723 43.4348 7.77555 44.9926 17.7539C45.0024 17.8135 45.0024 17.8743 44.9926 17.9338C45.0261 18.406 44.8665 18.8718 44.5491 19.2282C44.2318 19.5846 43.7827 19.8022 43.3013 19.833L26.0225 20.9725C25.4511 21.0231 24.8844 20.8351 24.4616 20.4546C24.0389 20.074 23.7992 19.5363 23.8015 18.9734L22.6401 2.00096V1.72109C22.6612 1.24375 22.875 0.794257 23.2343 0.471741ZM22.0492 25.4106L37.0256 24.451L37.1275 24.491C37.7706 24.5015 38.3831 24.7623 38.8302 25.2159C39.2773 25.6696 39.5223 26.2789 39.5114 26.9099C38.9213 35.5096 32.6164 42.695 24.0362 44.5461C15.4561 46.3972 6.66039 42.4698 2.44751 34.9063C1.20874 32.7279 0.425931 30.3287 0.145021 27.8495C0.0360705 27.1148 -0.0116316 26.3727 0.00238947 25.6305C0.0307854 16.486 6.54137 8.59297 15.6512 6.65895C16.754 6.45253 17.8596 7.00315 18.3408 7.99835C18.4606 8.17894 18.5564 8.37375 18.626 8.57809C18.7968 11.2141 18.974 13.8252 19.1503 16.4253C19.2896 18.4787 19.4285 20.5253 19.5633 22.5718C19.5564 23.0539 19.6322 23.5338 19.7875 23.9912C20.1531 24.8912 21.0631 25.4623 22.0492 25.4106Z" fill="#69B99D"/>
</svg>
