<svg width="39" height="45" viewBox="0 0 39 45" fill="none" xmlns="http://www.w3.org/2000/svg">
<path fill-rule="evenodd" clip-rule="evenodd" d="M0 18.715C0 8.36526 8.64873 0 19.1103 0C29.6013 0 38.25 8.36526 38.25 18.715C38.25 23.9303 36.3533 28.7722 33.2314 32.876C29.7873 37.4029 25.5424 41.347 20.7642 44.443C19.6707 45.1584 18.6837 45.2124 17.4835 44.443C12.6782 41.347 8.4332 37.4029 5.01862 32.876C1.89446 28.7722 0 23.9303 0 18.715ZM12.812 19.2977C12.812 22.7649 15.6412 25.4918 19.1102 25.4918C22.5815 25.4918 25.438 22.7649 25.438 19.2977C25.438 15.8576 22.5815 12.9979 19.1102 12.9979C15.6412 12.9979 12.812 15.8576 12.812 19.2977Z" fill="#69B99D"/>
</svg>
