<svg width="39" height="45" viewBox="0 0 39 45" fill="none" xmlns="http://www.w3.org/2000/svg">
<path fill-rule="evenodd" clip-rule="evenodd" d="M18.5132 44.8057C18.7624 44.9359 19.041 45.0021 19.3196 44.9999C19.5982 44.9977 19.8746 44.9293 20.126 44.7969L28.1537 40.5055C30.4302 39.292 32.2129 37.9351 33.6037 36.3554C36.6277 32.9135 38.279 28.5206 38.2496 23.9909L38.1544 9.04946C38.1454 7.3285 37.015 5.79287 35.3434 5.23466L20.4092 0.224019C19.5099 -0.0804583 18.5245 -0.0738392 17.6411 0.239464L2.76355 5.42882C1.10092 6.0091 -0.00900558 7.55575 5.50618e-05 9.27892L0.0951918 24.2094C0.124639 28.7456 1.83257 33.1186 4.90639 36.5253C6.31079 38.083 8.10933 39.42 10.4107 40.6137L18.5132 44.8057ZM16.388 27.2451C16.7232 27.5672 17.1581 27.7261 17.5931 27.7217C18.028 27.7195 18.4606 27.5562 18.7913 27.2297L27.5643 18.5807C28.2235 17.9298 28.2167 16.884 27.5507 16.242C26.8825 15.5999 25.8065 15.6043 25.1474 16.2552L17.5681 23.726L14.4649 20.743C13.7967 20.1009 12.723 20.1075 12.0615 20.7584C11.4024 21.4093 11.4092 22.4551 12.0774 23.0971L16.388 27.2451Z" fill="#69B99D"/>
</svg>
