<svg width="114" height="26" viewBox="0 0 114 26" fill="none" xmlns="http://www.w3.org/2000/svg">
<g filter="url(#filter0_d_41_623)">
<g clip-path="url(#clip0_41_623)">
<path d="M17.1699 15.7499C17.05 15.7504 16.9317 15.7221 16.8249 15.6674L12.9999 13.6649L9.17494 15.6674C9.05074 15.7327 8.9107 15.7619 8.77075 15.7516C8.6308 15.7412 8.49655 15.6919 8.38327 15.6091C8.26998 15.5262 8.1822 15.4133 8.12991 15.2831C8.07761 15.1529 8.0629 15.0106 8.08744 14.8724L8.83744 10.6499L5.74744 7.64991C5.65104 7.5537 5.58265 7.43306 5.54961 7.30093C5.51658 7.1688 5.52015 7.03016 5.55994 6.89991C5.60341 6.76661 5.68338 6.64817 5.79076 6.55803C5.89814 6.46788 6.02864 6.40964 6.16744 6.38991L10.4424 5.76741L12.3249 1.91991C12.3864 1.79311 12.4822 1.68617 12.6016 1.61134C12.721 1.53651 12.8591 1.49683 12.9999 1.49683C13.1408 1.49683 13.2789 1.53651 13.3983 1.61134C13.5176 1.68617 13.6135 1.79311 13.6749 1.91991L15.5799 5.75991L19.8549 6.38241C19.9938 6.40214 20.1243 6.46038 20.2316 6.55053C20.339 6.64067 20.419 6.75911 20.4624 6.89241C20.5022 7.02266 20.5058 7.1613 20.4728 7.29343C20.4397 7.42556 20.3714 7.5462 20.2749 7.64241L17.1849 10.6424L17.9349 14.8649C17.9617 15.0055 17.9477 15.1508 17.8945 15.2837C17.8414 15.4166 17.7513 15.5316 17.6349 15.6149C17.4991 15.7101 17.3356 15.7576 17.1699 15.7499Z" fill="#69B99D"/>
</g>
<g clip-path="url(#clip1_41_623)">
<path d="M39.1699 15.7499C39.05 15.7504 38.9317 15.7221 38.8249 15.6674L34.9999 13.6649L31.1749 15.6674C31.0507 15.7327 30.9107 15.7619 30.7708 15.7516C30.6308 15.7412 30.4966 15.6919 30.3833 15.6091C30.27 15.5262 30.1822 15.4133 30.1299 15.2831C30.0776 15.1529 30.0629 15.0106 30.0874 14.8724L30.8374 10.6499L27.7474 7.64991C27.651 7.5537 27.5826 7.43306 27.5496 7.30093C27.5166 7.1688 27.5202 7.03016 27.5599 6.89991C27.6034 6.76661 27.6834 6.64817 27.7908 6.55803C27.8981 6.46788 28.0286 6.40964 28.1674 6.38991L32.4424 5.76741L34.3249 1.91991C34.3864 1.79311 34.4822 1.68617 34.6016 1.61134C34.721 1.53651 34.8591 1.49683 34.9999 1.49683C35.1408 1.49683 35.2789 1.53651 35.3983 1.61134C35.5176 1.68617 35.6135 1.79311 35.6749 1.91991L37.5799 5.75991L41.8549 6.38241C41.9938 6.40214 42.1243 6.46038 42.2316 6.55053C42.339 6.64067 42.419 6.75911 42.4624 6.89241C42.5022 7.02266 42.5058 7.1613 42.4728 7.29343C42.4397 7.42556 42.3714 7.5462 42.2749 7.64241L39.1849 10.6424L39.9349 14.8649C39.9617 15.0055 39.9477 15.1508 39.8945 15.2837C39.8414 15.4166 39.7513 15.5316 39.6349 15.6149C39.4991 15.7101 39.3356 15.7576 39.1699 15.7499Z" fill="#69B99D"/>
</g>
<g clip-path="url(#clip2_41_623)">
<path d="M61.1699 15.7499C61.05 15.7504 60.9317 15.7221 60.8249 15.6674L56.9999 13.6649L53.1749 15.6674C53.0507 15.7327 52.9107 15.7619 52.7708 15.7516C52.6308 15.7412 52.4966 15.6919 52.3833 15.6091C52.27 15.5262 52.1822 15.4133 52.1299 15.2831C52.0776 15.1529 52.0629 15.0106 52.0874 14.8724L52.8374 10.6499L49.7474 7.64991C49.651 7.5537 49.5826 7.43306 49.5496 7.30093C49.5166 7.1688 49.5202 7.03016 49.5599 6.89991C49.6034 6.76661 49.6834 6.64817 49.7908 6.55803C49.8981 6.46788 50.0286 6.40964 50.1674 6.38991L54.4424 5.76741L56.3249 1.91991C56.3864 1.79311 56.4822 1.68617 56.6016 1.61134C56.721 1.53651 56.8591 1.49683 56.9999 1.49683C57.1408 1.49683 57.2789 1.53651 57.3983 1.61134C57.5176 1.68617 57.6135 1.79311 57.6749 1.91991L59.5799 5.75991L63.8549 6.38241C63.9938 6.40214 64.1243 6.46038 64.2316 6.55053C64.339 6.64067 64.419 6.75911 64.4624 6.89241C64.5022 7.02266 64.5058 7.1613 64.4728 7.29343C64.4397 7.42556 64.3714 7.5462 64.2749 7.64241L61.1849 10.6424L61.9349 14.8649C61.9617 15.0055 61.9477 15.1508 61.8945 15.2837C61.8414 15.4166 61.7513 15.5316 61.6349 15.6149C61.4991 15.7101 61.3356 15.7576 61.1699 15.7499Z" fill="#69B99D"/>
</g>
<g clip-path="url(#clip3_41_623)">
<path d="M83.1699 15.7499C83.05 15.7504 82.9317 15.7221 82.8249 15.6674L78.9999 13.6649L75.1749 15.6674C75.0507 15.7327 74.9107 15.7619 74.7708 15.7516C74.6308 15.7412 74.4966 15.6919 74.3833 15.6091C74.27 15.5262 74.1822 15.4133 74.1299 15.2831C74.0776 15.1529 74.0629 15.0106 74.0874 14.8724L74.8374 10.6499L71.7474 7.64991C71.651 7.5537 71.5826 7.43306 71.5496 7.30093C71.5166 7.1688 71.5202 7.03016 71.5599 6.89991C71.6034 6.76661 71.6834 6.64817 71.7908 6.55803C71.8981 6.46788 72.0286 6.40964 72.1674 6.38991L76.4424 5.76741L78.3249 1.91991C78.3864 1.79311 78.4822 1.68617 78.6016 1.61134C78.721 1.53651 78.8591 1.49683 78.9999 1.49683C79.1408 1.49683 79.2789 1.53651 79.3983 1.61134C79.5176 1.68617 79.6135 1.79311 79.6749 1.91991L81.5799 5.75991L85.8549 6.38241C85.9938 6.40214 86.1243 6.46038 86.2316 6.55053C86.339 6.64067 86.419 6.75911 86.4624 6.89241C86.5022 7.02266 86.5058 7.1613 86.4728 7.29343C86.4397 7.42556 86.3714 7.5462 86.2749 7.64241L83.1849 10.6424L83.9349 14.8649C83.9617 15.0055 83.9477 15.1508 83.8945 15.2837C83.8414 15.4166 83.7513 15.5316 83.6349 15.6149C83.4991 15.7101 83.3356 15.7576 83.1699 15.7499Z" fill="#69B99D"/>
</g>
<g clip-path="url(#clip4_41_623)">
<path d="M105.17 15.7499C105.05 15.7504 104.932 15.7221 104.825 15.6674L101 13.6649L97.1749 15.6674C97.0507 15.7327 96.9107 15.7619 96.7708 15.7516C96.6308 15.7412 96.4966 15.6919 96.3833 15.6091C96.27 15.5262 96.1822 15.4133 96.1299 15.2831C96.0776 15.1529 96.0629 15.0106 96.0874 14.8724L96.8374 10.6499L93.7474 7.64991C93.651 7.5537 93.5826 7.43306 93.5496 7.30093C93.5166 7.1688 93.5202 7.03016 93.5599 6.89991C93.6034 6.76661 93.6834 6.64817 93.7908 6.55803C93.8981 6.46788 94.0286 6.40964 94.1674 6.38991L98.4424 5.76741L100.325 1.91991C100.386 1.79311 100.482 1.68617 100.602 1.61134C100.721 1.53651 100.859 1.49683 101 1.49683C101.141 1.49683 101.279 1.53651 101.398 1.61134C101.518 1.68617 101.614 1.79311 101.675 1.91991L103.58 5.75991L107.855 6.38241C107.994 6.40214 108.124 6.46038 108.232 6.55053C108.339 6.64067 108.419 6.75911 108.462 6.89241C108.502 7.02266 108.506 7.1613 108.473 7.29343C108.44 7.42556 108.371 7.5462 108.275 7.64241L105.185 10.6424L105.935 14.8649C105.962 15.0055 105.948 15.1508 105.895 15.2837C105.841 15.4166 105.751 15.5316 105.635 15.6149C105.499 15.7101 105.336 15.7576 105.17 15.7499Z" fill="#69B99D"/>
</g>
</g>
<defs>
<filter id="filter0_d_41_623" x="0" y="0" width="114" height="26" filterUnits="userSpaceOnUse" color-interpolation-filters="sRGB">
<feFlood flood-opacity="0" result="BackgroundImageFix"/>
<feColorMatrix in="SourceAlpha" type="matrix" values="0 0 0 0 0 0 0 0 0 0 0 0 0 0 0 0 0 0 127 0" result="hardAlpha"/>
<feOffset dy="4"/>
<feGaussianBlur stdDeviation="2"/>
<feComposite in2="hardAlpha" operator="out"/>
<feColorMatrix type="matrix" values="0 0 0 0 0 0 0 0 0 0 0 0 0 0 0 0 0 0 0.25 0"/>
<feBlend mode="normal" in2="BackgroundImageFix" result="effect1_dropShadow_41_623"/>
<feBlend mode="normal" in="SourceGraphic" in2="effect1_dropShadow_41_623" result="shape"/>
</filter>
<clipPath id="clip0_41_623">
<rect width="18" height="18" fill="white" transform="translate(4)"/>
</clipPath>
<clipPath id="clip1_41_623">
<rect width="18" height="18" fill="white" transform="translate(26)"/>
</clipPath>
<clipPath id="clip2_41_623">
<rect width="18" height="18" fill="white" transform="translate(48)"/>
</clipPath>
<clipPath id="clip3_41_623">
<rect width="18" height="18" fill="white" transform="translate(70)"/>
</clipPath>
<clipPath id="clip4_41_623">
<rect width="18" height="18" fill="white" transform="translate(92)"/>
</clipPath>
</defs>
</svg>
