<svg width="45" height="43" viewBox="0 0 45 43" fill="none" xmlns="http://www.w3.org/2000/svg">
<path d="M35.8175 26.595C35.2347 27.1597 34.967 27.9765 35.0997 28.7775L37.1 39.8475C37.2687 40.7857 36.8727 41.7353 36.0875 42.2775C35.318 42.84 34.2942 42.9075 33.455 42.4575L23.4897 37.26C23.1432 37.0755 22.7585 36.9765 22.3647 36.9653H21.755C21.5435 36.9968 21.3365 37.0642 21.1475 37.1677L11.18 42.39C10.6872 42.6375 10.1292 42.7253 9.58247 42.6375C8.25047 42.3855 7.36172 41.1165 7.57997 39.7778L9.58247 28.7078C9.71522 27.9 9.44747 27.0787 8.86472 26.505L0.739971 18.63C0.0604706 17.9707 -0.175779 16.9808 0.134721 16.0875C0.436221 15.1965 1.20572 14.5463 2.13497 14.4L13.3175 12.7778C14.168 12.69 14.915 12.1725 15.2975 11.4075L20.225 1.305C20.342 1.08 20.4927 0.873 20.675 0.6975L20.8775 0.54C20.9832 0.423 21.1047 0.32625 21.2397 0.2475L21.485 0.1575L21.8675 0H22.8147C23.6607 0.08775 24.4055 0.594 24.7947 1.35L29.7875 11.4075C30.1475 12.1433 30.8472 12.654 31.655 12.7778L42.8375 14.4C43.7825 14.535 44.5722 15.1875 44.885 16.0875C45.1797 16.9897 44.9255 17.9797 44.2325 18.63L35.8175 26.595Z" fill="#69B99D"/>
</svg>
