<svg width="45" height="41" viewBox="0 0 45 41" fill="none" xmlns="http://www.w3.org/2000/svg">
<path fill-rule="evenodd" clip-rule="evenodd" d="M39.9622 20.2522C39.9622 22.0826 41.4653 23.5719 43.3125 23.5719C44.244 23.5719 45 24.321 45 25.2439V31.2657C45 36.3577 40.8195 40.5 35.6805 40.5H9.32175C4.18275 40.5 0 36.3577 0 31.2657V25.2439C0 24.321 0.756 23.5719 1.6875 23.5719C3.537 23.5719 5.04 22.0826 5.04 20.2522C5.04 18.4687 3.59775 17.1266 1.6875 17.1266C1.23975 17.1266 0.81225 16.9504 0.495 16.6361C0.17775 16.3217 0 15.8959 0 15.4545L0.0045 9.23657C0.0045 4.14453 4.185 0 9.324 0H35.676C40.815 0 44.9977 4.14453 44.9977 9.23657L45 15.2605C45 15.7019 44.8223 16.13 44.5073 16.4421C44.19 16.7565 43.7625 16.9326 43.3125 16.9326C41.4653 16.9326 39.9622 18.4219 39.9622 20.2522ZM27.5669 21.7082L30.2197 19.1488C30.6809 18.7073 30.8407 18.0563 30.6404 17.4544C30.4424 16.8524 29.9249 16.4244 29.2994 16.3374L25.6342 15.8068L23.9939 12.5162C23.7127 11.9499 23.1412 11.5977 22.5044 11.5954H22.4999C21.8654 11.5954 21.2939 11.9477 21.0082 12.514L19.3679 15.8068L15.7094 16.3352C15.0772 16.4244 14.5597 16.8524 14.3594 17.4544C14.1614 18.0563 14.3212 18.7073 14.7802 19.1488L17.4329 21.7082L16.8074 25.3265C16.6994 25.9508 16.9537 26.5706 17.4712 26.9429C17.7637 27.1502 18.1034 27.2572 18.4477 27.2572C18.7109 27.2572 18.9764 27.1926 19.2194 27.0655L22.4999 25.3578L25.7737 27.061C26.3407 27.362 27.0134 27.3152 27.5287 26.9407C28.0484 26.5706 28.3027 25.9508 28.1947 25.3265L27.5669 21.7082Z" fill="#69B99D"/>
</svg>
